<svg xmlns="http://www.w3.org/2000/svg" width="1200" height="675" viewBox="0 0 1200 675"><rect width="1200" height="675" fill="#f3f3f3"/><text x="30" y="45" font-family="Arial" font-size="28" fill="#222">MedNova Claims — Executive Summary</text><g font-family="Arial"><rect x="25" y="75" width="260" height="105" rx="18" fill="white"/><text x="155" y="125" text-anchor="middle" font-size="34">12.2%</text><text x="155" y="153" text-anchor="middle" font-size="18">Denial Rate</text><rect x="315" y="75" width="260" height="105" rx="18" fill="white"/><text x="445" y="125" text-anchor="middle" font-size="34">$376.5M</text><text x="445" y="153" text-anchor="middle" font-size="18">Net Leakage</text><rect x="605" y="75" width="260" height="105" rx="18" fill="white"/><text x="735" y="125" text-anchor="middle" font-size="34">80.8%</text><text x="735" y="153" text-anchor="middle" font-size="18">Clean Claim Rate</text><rect x="895" y="75" width="260" height="105" rx="18" fill="white"/><text x="1025" y="125" text-anchor="middle" font-size="34">32</text><text x="1025" y="153" text-anchor="middle" font-size="18">Avg Days in AR</text><rect x="25" y="215" width="555" height="390" fill="white"/><text x="45" y="250" font-size="21">Denial Rate by Year, Quarter and Month</text><polyline points="55,510 110,450 165,475 220,410 275,470 330,430 385,455 440,400 495,445 550,420" fill="none" stroke="#1683e8" stroke-width="5"/><line x1="55" y1="530" x2="550" y2="530" stroke="#aaa"/><rect x="605" y="215" width="550" height="390" fill="white"/><text x="625" y="250" font-size="21">Total Denial Reasons</text><g fill="#1683e8"><rect x="775" y="285" width="330" height="28"/><rect x="775" y="325" width="315" height="28"/><rect x="775" y="365" width="290" height="28"/><rect x="775" y="405" width="270" height="28"/><rect x="775" y="445" width="250" height="28"/><rect x="775" y="485" width="225" height="28"/></g><g font-size="14"><text x="620" y="305">Duplicate Claim</text><text x="620" y="345">Eligibility Expired</text><text x="620" y="385">Non-Covered Service</text><text x="620" y="425">Coding Mismatch</text><text x="620" y="465">Prior Authorization</text><text x="620" y="505">Medical Necessity</text></g></g></svg>